<?xml version="1.0" standalone="no"?>
<!DOCTYPE svg PUBLIC "-//W3C//DTD SVG 20010904//EN"
 "http://www.w3.org/TR/2001/REC-SVG-20010904/DTD/svg10.dtd">
<svg version="1.0" xmlns="http://www.w3.org/2000/svg"
 width="512.000000pt" height="512.000000pt" viewBox="0 0 512.000000 512.000000"
 preserveAspectRatio="xMidYMid meet">

<g transform="translate(0.000000,512.000000) scale(0.100000,-0.100000)"
fill="red" stroke="none">
<path d="M2122 4117 l-602 -602 0 -345 0 -345 813 -812 c713 -714 816 -813
842 -813 26 0 122 92 787 758 710 709 758 759 758 791 0 33 -60 95 -952 990
-524 526 -962 961 -973 968 -53 32 -41 42 -673 -590z m1538 -500 l864 -868
-674 -674 -675 -675 -727 727 -728 728 129 130 c71 71 134 140 141 153 22 44
3 74 -135 212 l-135 135 517 517 c506 506 517 516 537 500 12 -10 410 -408
886 -885z m-1910 -392 l54 -55 -54 -55 c-30 -30 -58 -55 -62 -55 -4 0 -8 50
-8 110 0 61 4 110 8 110 4 0 32 -25 62 -55z"/>
<path d="M2538 3392 c-502 -501 -548 -550 -548 -580 0 -44 38 -82 82 -82 30 0
79 47 575 543 597 596 583 579 525 637 -61 61 -32 84 -634 -518z"/>
<path d="M3285 3711 c-27 -17 -806 -795 -1003 -1002 -89 -94 -98 -116 -61
-163 15 -20 29 -26 57 -26 36 0 59 22 585 548 600 600 577 573 518 633 -34 34
-55 36 -96 10z"/>
<path d="M3515 3510 c-11 -5 -264 -253 -562 -552 -581 -582 -567 -565 -523
-621 26 -32 63 -41 98 -23 15 8 267 255 560 548 502 504 532 536 532 569 0 55
-58 99 -105 79z"/>
<path d="M3178 2763 c-295 -295 -542 -549 -549 -564 -21 -53 37 -120 92 -106
14 4 254 236 567 549 513 514 542 545 542 579 0 46 -33 79 -80 79 -32 0 -72
-37 -572 -537z"/>
<path d="M3723 2888 c-113 -112 -358 -360 -546 -551 -300 -306 -340 -352 -340
-379 0 -40 42 -78 86 -78 29 0 81 50 574 547 516 522 542 550 543 585 0 44
-36 78 -83 78 -26 0 -59 -29 -234 -202z"/>
<path d="M1063 2757 c-116 -116 -124 -137 -74 -188 50 -50 79 -37 199 83 98
99 113 138 69 182 -17 17 -37 26 -59 26 -27 0 -47 -15 -135 -103z"/>
<path d="M785 2470 c-11 -4 -103 -92 -204 -194 -178 -179 -184 -186 -177 -218
8 -43 39 -68 84 -68 34 0 50 13 219 183 169 168 183 185 183 218 0 55 -58 99
-105 79z"/>
<path d="M1565 2460 c-11 -4 -156 -145 -322 -312 -317 -318 -322 -324 -293
-377 12 -24 64 -45 92 -37 13 3 159 142 326 309 267 268 302 306 302 334 0 45
-9 62 -41 78 -32 17 -36 17 -64 5z"/>
<path d="M1706 1821 c-234 -234 -250 -252 -250 -286 0 -47 32 -79 79 -79 34 0
52 16 286 250 223 224 249 253 249 282 0 22 -9 41 -25 57 -16 16 -35 25 -57
25 -29 0 -58 -26 -282 -249z"/>
<path d="M588 1492 c-167 -167 -188 -191 -188 -220 0 -44 38 -82 82 -82 28 0
53 21 215 183 207 207 218 224 165 277 -57 56 -65 51 -274 -158z"/>
<path d="M1997 1323 c-191 -192 -350 -358 -353 -370 -13 -49 29 -103 80 -103
27 0 75 44 383 352 193 193 354 362 358 375 6 27 -17 78 -40 87 -9 3 -31 6
-48 6 -28 0 -70 -39 -380 -347z"/>
<path d="M838 953 c-474 -474 -467 -465 -409 -524 59 -58 50 -65 524 409 402
403 427 430 427 463 0 46 -33 79 -80 79 -32 0 -66 -31 -462 -427z"/>
<path d="M2745 1271 c-36 -16 -303 -294 -310 -324 -13 -50 45 -107 97 -94 13
4 92 75 176 160 130 131 152 158 152 184 0 57 -62 97 -115 74z"/>
<path d="M2139 673 c-96 -95 -150 -156 -154 -174 -13 -59 40 -110 98 -96 12 4
91 76 176 161 148 150 153 156 147 188 -8 43 -39 68 -84 68 -32 0 -48 -13
-183 -147z"/>
<path d="M1333 657 c-125 -125 -143 -147 -143 -175 0 -44 38 -82 82 -82 28 0
50 18 175 143 120 120 143 147 143 172 -1 34 -15 56 -47 73 -48 26 -63 16
-210 -131z"/>
</g>
</svg>
