<?xml version="1.0" standalone="no"?>
<!DOCTYPE svg PUBLIC "-//W3C//DTD SVG 20010904//EN"
 "http://www.w3.org/TR/2001/REC-SVG-20010904/DTD/svg10.dtd">
<svg version="1.0" xmlns="http://www.w3.org/2000/svg"
 width="1260.000000pt" height="1260.000000pt" viewBox="0 0 1260.000000 1260.000000"
 preserveAspectRatio="xMidYMid meet">

<g transform="translate(0.000000,1260.000000) scale(0.100000,-0.100000)"
fill="red" stroke="none">
<path d="M3654 12100 c-45 -9 -93 -30 -140 -60 -16 -11 -61 -24 -99 -29 -60
-9 -73 -15 -109 -49 -23 -22 -58 -46 -79 -53 -22 -8 -55 -28 -75 -45 -21 -17
-51 -38 -69 -47 -17 -9 -47 -35 -65 -58 -18 -23 -49 -60 -69 -83 -20 -22 -40
-52 -44 -65 -4 -13 -24 -42 -45 -65 -44 -48 -70 -96 -70 -129 0 -12 -19 -52
-41 -87 -46 -69 -53 -105 -60 -310 -2 -52 -4 -1503 -4 -3225 l0 -3130 22 -46
c11 -25 34 -61 51 -80 16 -19 37 -48 45 -66 29 -56 72 -78 152 -77 39 0 80 5
92 12 12 7 30 35 41 64 11 29 29 69 39 88 17 34 18 140 23 2625 3 1425 9 2596
13 2603 5 6 21 19 37 27 26 13 523 15 4206 15 l4178 1 20 -21 21 -21 0 -2813
0 -2814 -23 -31 c-55 -74 -71 -104 -77 -142 -9 -53 -124 -183 -193 -218 -26
-13 -61 -36 -79 -51 -18 -17 -49 -31 -75 -35 -24 -3 -95 -20 -158 -36 l-115
-30 -3215 0 c-3086 0 -3218 0 -3284 -18 -80 -21 -133 -60 -177 -130 -38 -59
-38 -103 0 -162 49 -76 90 -107 168 -129 71 -19 115 -20 3275 -19 2647 0 3221
3 3308 14 58 7 143 17 190 20 114 9 154 20 193 54 17 16 57 36 87 44 35 10 66
28 85 48 17 17 54 43 83 56 29 14 60 35 70 47 9 11 39 38 65 59 26 21 56 56
67 76 10 21 26 44 36 52 9 8 28 39 42 69 13 30 43 75 66 100 39 42 43 51 49
114 4 40 15 84 27 105 11 20 30 56 43 81 l22 45 0 3490 0 3490 -41 75 c-27 49
-43 93 -47 127 -6 55 -27 104 -58 138 -10 11 -25 41 -34 65 -16 44 -32 64
-177 208 -143 143 -173 170 -209 181 -20 6 -47 23 -60 37 -34 36 -47 42 -125
54 -48 8 -86 21 -127 46 -43 27 -76 38 -125 45 -85 11 -7393 10 -7448 -1z
m7436 -481 c31 -7 65 -23 84 -40 18 -15 55 -38 81 -49 69 -30 247 -214 284
-295 15 -33 35 -66 44 -74 40 -32 47 -99 47 -441 0 -337 -4 -381 -40 -400 -30
-16 -8348 -13 -8380 3 -14 7 -33 29 -44 51 -17 34 -18 62 -17 289 0 174 6 286
17 362 9 61 18 125 20 142 3 19 22 52 45 79 22 26 42 59 46 74 11 56 158 193
219 204 22 4 63 26 94 49 41 31 68 43 105 48 95 12 7340 10 7395 -2z"/>
<path d="M4054 11196 c-39 -17 -134 -168 -134 -214 0 -56 108 -195 181 -233
39 -19 155 -25 207 -11 25 8 97 60 148 109 l34 31 0 98 0 97 -68 69 -69 68
-134 0 c-89 -1 -144 -5 -165 -14z"/>
<path d="M5025 11194 c-40 -20 -62 -41 -96 -88 -27 -37 -29 -45 -29 -138 0
-110 -5 -102 96 -183 61 -49 75 -54 159 -54 85 0 90 2 172 62 39 29 60 55 89
111 l38 74 -34 76 c-51 110 -75 137 -135 147 -88 14 -227 11 -260 -7z"/>
<path d="M5943 11190 c-18 -11 -33 -24 -33 -30 0 -5 -20 -32 -45 -60 -42 -48
-45 -54 -45 -108 0 -69 16 -98 94 -173 74 -70 114 -88 196 -89 86 0 121 11
176 57 102 84 100 81 107 167 3 43 2 88 -3 100 -10 26 -107 129 -137 144 -13
7 -71 12 -150 12 -110 0 -133 -3 -160 -20z"/>
<path d="M1725 8973 c-52 -7 -167 -30 -255 -52 -47 -11 -116 -23 -154 -26 -61
-6 -73 -11 -110 -45 -26 -24 -61 -44 -97 -54 -31 -9 -67 -28 -80 -42 -13 -14
-40 -34 -59 -45 -36 -19 -152 -130 -227 -216 -25 -30 -46 -65 -51 -91 -6 -27
-26 -59 -55 -92 -41 -46 -45 -54 -49 -114 -3 -51 -11 -75 -36 -116 -18 -29
-38 -76 -45 -104 -9 -39 -12 -784 -12 -3272 l0 -3222 42 -81 c24 -44 43 -94
43 -111 0 -43 36 -133 65 -160 14 -13 28 -38 31 -57 7 -35 54 -91 185 -222
142 -142 177 -171 203 -171 14 0 40 -13 58 -29 46 -40 85 -58 143 -66 30 -5
77 -24 120 -49 l70 -41 3755 0 3755 0 45 23 c25 12 59 31 76 42 20 13 58 23
100 27 63 6 72 10 114 48 25 23 65 51 90 62 25 11 56 33 70 48 14 14 39 33 56
40 17 7 46 32 65 55 19 23 48 59 65 79 17 20 41 54 52 77 11 22 28 47 38 55
33 27 74 92 74 118 0 15 9 42 20 61 74 129 70 115 81 343 6 117 9 380 7 585
l-3 374 -30 24 c-16 14 -54 45 -83 69 -43 37 -60 45 -93 45 -49 0 -69 -10
-136 -66 -36 -31 -61 -65 -84 -111 l-32 -66 2 -326 c1 -179 -3 -360 -8 -401
-13 -107 -32 -251 -37 -276 -2 -11 -21 -43 -42 -70 -22 -27 -45 -66 -51 -86
-7 -21 -26 -50 -43 -65 -17 -16 -55 -49 -83 -75 -29 -27 -56 -48 -61 -48 -33
0 -89 -26 -129 -59 -39 -32 -57 -40 -108 -46 -101 -11 -7343 -6 -7395 6 -25 5
-60 23 -78 39 -18 16 -55 38 -81 50 -67 29 -247 215 -279 288 -13 30 -35 67
-48 83 -13 15 -29 51 -35 80 -8 36 -11 660 -11 2137 0 1804 -2 2099 -15 2177
-19 114 -19 201 0 340 8 63 15 190 15 296 0 170 2 188 20 211 l20 26 277 5
c153 3 319 10 368 17 71 10 120 10 234 0 l144 -12 70 71 c70 69 71 71 71 123
1 100 -8 119 -90 193 -49 44 -88 70 -112 76 -20 5 -245 9 -499 9 l-462 0 -20
26 c-20 25 -21 39 -20 318 0 367 4 402 58 485 22 35 41 75 41 88 0 37 15 58
96 136 150 145 169 159 232 169 31 5 81 20 111 34 89 40 160 54 282 54 241 0
250 3 333 103 55 64 56 67 56 112 -1 88 -59 160 -183 224 -58 29 -77 33 -154
36 -48 1 -101 0 -118 -2z"/>
<path d="M1945 8068 c-11 -6 -35 -24 -53 -40 -18 -15 -39 -28 -47 -28 -7 0
-23 -12 -34 -26 -18 -23 -21 -41 -21 -130 0 -100 1 -103 33 -146 57 -74 86
-88 189 -88 120 0 136 9 187 112 22 46 41 96 41 112 0 15 -12 48 -27 74 -42
74 -43 75 -162 154 -30 20 -76 23 -106 6z"/>
<path d="M4094 5491 c-63 -8 -71 -14 -122 -100 -60 -101 -61 -111 -17 -184 53
-86 59 -92 138 -132 67 -34 76 -36 153 -34 93 3 114 -7 114 -52 0 -43 -20 -77
-59 -101 -39 -24 -115 -87 -189 -158 -26 -25 -96 -90 -156 -145 -59 -55 -175
-165 -257 -245 -82 -80 -201 -194 -265 -255 -64 -60 -135 -128 -158 -150 -68
-64 -148 -136 -226 -200 -158 -132 -457 -402 -541 -490 -16 -16 -34 -34 -40
-40 -5 -5 -56 -55 -112 -110 -98 -95 -200 -175 -225 -175 -31 0 -40 45 -45
225 -3 99 -8 188 -12 197 -4 10 -23 28 -43 40 -21 12 -54 37 -75 55 -30 27
-45 33 -81 33 -67 0 -153 -68 -211 -169 l-45 -76 3 -455 2 -455 50 -89 c81
-144 17 -131 643 -128 l537 2 65 65 65 65 2 87 c2 106 -7 134 -56 166 -21 14
-51 39 -68 56 -33 33 -47 35 -180 31 -28 -1 -61 4 -72 10 -51 27 -46 87 10
116 18 9 74 57 124 108 278 275 709 671 761 698 18 10 39 26 46 36 7 11 74 74
148 142 74 68 158 145 185 171 28 27 119 115 204 196 85 81 173 166 195 189
23 23 104 99 181 169 77 70 167 156 200 191 69 73 102 83 132 38 13 -21 17
-51 18 -153 l1 -127 50 -70 c28 -38 64 -75 80 -83 16 -8 41 -20 56 -28 14 -7
39 -13 55 -13 47 0 169 50 200 82 l28 29 3 532 c2 293 0 542 -3 555 -3 12 -22
41 -42 63 -70 78 -39 74 -598 75 -275 1 -523 -1 -551 -5z"/>
</g>
</svg>
