<?xml version="1.0" standalone="no"?>
<!DOCTYPE svg PUBLIC "-//W3C//DTD SVG 20010904//EN"
 "http://www.w3.org/TR/2001/REC-SVG-20010904/DTD/svg10.dtd">
<svg version="1.0" xmlns="http://www.w3.org/2000/svg"
 width="512.000000pt" height="512.000000pt" viewBox="0 0 512.000000 512.000000"
 preserveAspectRatio="xMidYMid meet">

<g transform="translate(0.000000,512.000000) scale(0.100000,-0.100000)"
fill="red" stroke="none">
<path d="M4235 5114 c-368 -39 -713 -153 -1034 -343 -206 -122 -345 -234 -602
-488 l-236 -233 -639 -100 c-351 -54 -655 -104 -674 -109 -27 -8 -136 -112
-473 -449 -407 -408 -439 -441 -444 -479 -7 -50 16 -97 57 -118 24 -12 111
-19 423 -31 215 -8 403 -18 416 -20 21 -5 13 -15 -86 -117 -151 -155 -154
-179 -36 -299 38 -39 64 -72 61 -80 -3 -8 -87 -139 -187 -292 -203 -312 -206
-320 -152 -392 34 -46 915 -924 951 -948 57 -38 78 -29 376 165 153 100 284
184 292 187 8 3 41 -23 80 -61 120 -118 144 -115 299 36 102 99 112 107 117
86 2 -13 12 -201 20 -416 17 -427 19 -438 76 -468 36 -19 73 -19 108 -1 15 8
221 210 459 448 324 325 433 440 437 463 3 17 51 318 106 669 l100 639 233
236 c154 157 263 277 324 358 257 342 422 726 490 1138 13 81 18 165 17 320 0
215 -8 300 -46 460 -25 110 -40 141 -76 158 -36 19 -146 45 -257 63 -88 14
-421 26 -500 18z m330 -234 c61 -6 147 -18 191 -26 l82 -16 16 -82 c80 -404
13 -838 -194 -1261 -159 -327 -232 -418 -776 -965 -243 -245 -447 -455 -453
-467 -39 -76 43 -174 130 -156 23 4 61 33 122 92 68 65 87 80 83 61 -3 -14
-37 -227 -76 -475 l-69 -449 -308 -308 c-169 -170 -309 -305 -310 -301 -1 5
-9 176 -18 382 l-16 374 176 177 c120 122 175 185 177 201 4 74 -16 113 -69
135 -70 30 -72 28 -446 -344 l-347 -347 -298 298 -297 297 712 712 c570 572
712 719 718 746 15 73 -64 152 -137 137 -27 -6 -174 -148 -746 -718 l-712
-712 -297 297 -298 298 347 347 c372 374 374 376 344 446 -22 53 -61 73 -135
69 -16 -2 -79 -57 -201 -178 l-177 -175 -379 16 c-209 9 -380 18 -381 19 -1 1
136 140 305 309 l308 308 449 69 c248 39 461 73 475 76 20 4 9 -11 -50 -70
l-75 -76 82 -82 83 -82 432 430 c238 237 469 459 513 494 135 107 282 199 450
280 363 177 725 252 1070 220z m-3221 -2989 l189 -189 -35 -42 c-55 -64 -58
-119 -7 -169 50 -51 105 -48 169 7 l42 35 189 -189 c104 -104 188 -193 186
-197 -1 -5 -96 -70 -210 -144 l-208 -136 -395 394 c-217 217 -392 399 -390
405 8 22 268 414 275 414 3 0 91 -85 195 -189z"/>
<path d="M3875 4479 c-159 -16 -302 -107 -396 -251 -21 -33 -45 -81 -54 -107
-35 -107 -35 -255 0 -362 48 -143 195 -287 341 -335 81 -26 276 -27 351 -1
110 39 215 124 284 230 110 170 110 404 0 574 -119 184 -308 275 -526 252z
m172 -250 c115 -43 203 -168 203 -289 0 -162 -148 -310 -310 -310 -209 0 -363
221 -289 415 61 161 236 243 396 184z"/>
<path d="M484 1391 c-46 -34 -444 -435 -468 -471 -31 -47 -13 -120 38 -154 14
-9 44 -16 68 -16 42 0 44 1 295 253 l253 252 0 49 c0 41 -5 53 -34 82 -45 45
-96 47 -152 5z"/>
<path d="M890 1052 c-26 -4 -615 -580 -671 -656 -32 -44 -38 -90 -15 -134 23
-44 86 -69 132 -52 33 12 667 640 690 682 19 37 18 67 -6 105 -27 45 -74 65
-130 55z"/>
<path d="M1003 417 c-252 -251 -253 -253 -253 -295 0 -24 7 -54 16 -68 34 -51
107 -69 154 -38 36 24 437 422 471 468 42 56 40 107 -5 152 -29 29 -41 34 -82
34 l-49 0 -252 -253z"/>
</g>
</svg>
