<?xml version="1.0" standalone="no"?>
<!DOCTYPE svg PUBLIC "-//W3C//DTD SVG 20010904//EN"
 "http://www.w3.org/TR/2001/REC-SVG-20010904/DTD/svg10.dtd">
<svg version="1.0" xmlns="http://www.w3.org/2000/svg"
 width="512.000000pt" height="512.000000pt" viewBox="0 0 512.000000 512.000000"
 preserveAspectRatio="xMidYMid meet">

<g transform="translate(0.000000,512.000000) scale(0.100000,-0.100000)"
fill="red" stroke="none">
<path d="M930 5110 c-270 -47 -494 -244 -586 -515 -24 -71 -27 -96 -28 -215
-1 -101 4 -151 17 -200 68 -246 254 -442 497 -524 l75 -25 5 -268 c5 -257 6
-269 27 -299 42 -59 122 -80 187 -49 18 9 160 148 316 310 l284 295 176 0 176
0 187 -289 c103 -159 200 -297 215 -307 37 -26 127 -26 164 0 15 10 112 148
215 307 l187 289 176 0 176 0 284 -295 c156 -162 298 -301 316 -310 65 -31
145 -10 187 49 21 30 22 42 27 299 l5 268 75 25 c243 82 429 278 497 524 13
49 18 99 17 200 -1 119 -4 144 -28 215 -81 239 -248 406 -491 492 l-80 28
-1615 1 c-888 1 -1635 -2 -1660 -6z m3200 -301 c295 -47 458 -360 331 -635
-37 -80 -125 -167 -205 -205 -38 -18 -98 -34 -158 -43 -167 -25 -188 -53 -188
-263 l-1 -138 -182 187 c-100 103 -195 192 -210 197 -17 7 -137 11 -310 11
-255 0 -286 -2 -317 -18 -27 -15 -66 -67 -178 -238 -78 -120 -147 -219 -152
-219 -5 0 -74 99 -152 219 -112 171 -151 223 -178 238 -31 16 -62 18 -317 18
-173 0 -293 -4 -310 -11 -15 -5 -110 -94 -210 -197 l-182 -187 -1 138 c0 210
-21 238 -188 263 -126 19 -202 54 -277 129 -252 252 -114 696 235 754 80 13
3068 14 3150 0z"/>
<path d="M1292 4503 c-52 -25 -77 -69 -77 -133 0 -41 6 -63 22 -86 49 -68 -40
-64 1323 -64 1363 0 1274 -4 1323 64 31 43 31 129 0 172 -49 68 41 64 -1325
64 -1115 0 -1236 -2 -1266 -17z"/>
<path d="M2430 2691 c-219 -42 -415 -182 -525 -376 -87 -155 -117 -359 -77
-526 35 -146 100 -265 196 -361 l45 -45 -77 -51 c-147 -96 -271 -229 -352
-376 l-40 -72 -63 61 c-35 34 -90 78 -123 100 -32 21 -61 40 -63 41 -2 2 13
23 33 47 101 124 146 312 115 483 -31 173 -168 347 -330 423 -175 82 -343 82
-518 0 -118 -55 -225 -162 -280 -280 -59 -126 -74 -243 -50 -375 14 -75 68
-194 115 -251 20 -24 35 -45 33 -46 -175 -101 -327 -270 -399 -442 -53 -128
-64 -193 -64 -380 -1 -160 0 -172 21 -201 50 -70 -173 -64 2533 -64 2706 0
2483 -6 2533 64 21 29 22 40 21 206 -1 144 -5 189 -22 252 -65 240 -197 409
-441 565 -2 1 13 22 33 46 101 124 146 312 115 483 -31 173 -168 347 -330 423
-175 82 -343 82 -518 0 -118 -55 -225 -162 -280 -280 -59 -126 -74 -243 -50
-375 14 -75 68 -194 115 -251 20 -24 35 -45 33 -47 -2 -1 -31 -20 -63 -41 -33
-22 -88 -66 -123 -100 l-63 -61 -40 72 c-81 147 -205 280 -352 376 l-77 51 45
45 c230 229 280 602 119 887 -94 167 -244 289 -430 350 -63 21 -105 27 -195
30 -63 2 -135 0 -160 -4z m200 -302 c242 -38 408 -265 370 -506 -39 -245 -265
-411 -507 -373 -298 47 -462 360 -334 636 56 120 189 221 321 243 76 12 77 12
150 0z m-1658 -600 c156 -33 260 -192 227 -346 -33 -160 -189 -265 -346 -233
-206 43 -304 277 -189 453 37 57 113 111 176 125 62 14 71 14 132 1z m3300 0
c156 -33 260 -192 227 -346 -33 -160 -189 -265 -346 -233 -160 34 -265 190
-232 347 27 133 144 233 281 242 9 1 41 -4 70 -10z m-1512 -619 c128 -36 223
-93 325 -195 153 -153 212 -296 222 -537 l6 -138 -753 0 -753 0 6 138 c10 238
69 383 217 533 119 121 248 189 417 219 73 14 228 3 313 -20z m-1670 -301 c96
-31 167 -75 241 -148 100 -101 158 -219 174 -359 l7 -62 -606 0 -606 0 0 23
c1 56 33 169 71 246 84 170 258 294 454 325 61 9 201 -4 265 -25z m3290 5
c160 -47 298 -161 369 -305 38 -77 70 -190 71 -246 l0 -23 -606 0 -606 0 7 62
c16 140 74 258 174 359 92 91 194 145 321 169 62 12 204 4 270 -16z"/>
</g>
</svg>
