<?xml version="1.0" standalone="no"?>
<!DOCTYPE svg PUBLIC "-//W3C//DTD SVG 20010904//EN"
 "http://www.w3.org/TR/2001/REC-SVG-20010904/DTD/svg10.dtd">
<svg version="1.0" xmlns="http://www.w3.org/2000/svg"
 width="512.000000pt" height="512.000000pt" viewBox="0 0 512.000000 512.000000"
 preserveAspectRatio="xMidYMid meet">

<g transform="translate(0.000000,512.000000) scale(0.100000,-0.100000)"
fill="red" stroke="none">
<path d="M45 4608 c-46 -27 -44 0 -45 -879 l0 -836 24 -22 c18 -17 44 -25 115
-34 l91 -11 0 -1132 0 -1133 24 -28 24 -28 163 -3 c180 -4 200 -1 229 30 20
22 20 31 20 1131 l0 1108 53 -5 c637 -72 1544 -107 2254 -87 509 14 1025 46
1381 87 l52 5 0 -351 0 -351 25 -24 c31 -32 74 -33 103 -2 22 23 22 28 22 380
0 196 4 358 8 361 5 3 39 8 75 12 l67 7 0 -1072 0 -1071 -75 0 -75 0 0 609 0
610 -26 20 c-35 28 -69 26 -99 -4 l-25 -24 0 -659 c0 -647 0 -659 20 -680 29
-31 49 -34 229 -30 l163 3 24 28 24 28 0 1133 0 1132 91 11 c71 9 97 17 115
34 l24 22 0 836 c-1 641 -3 840 -13 852 -31 40 -44 40 -323 4 -870 -110 -1809
-159 -2624 -136 -473 13 -629 21 -1073 58 l-327 26 -25 -23 c-54 -50 -21 -124
59 -134 86 -12 532 -46 801 -63 442 -27 1552 -24 2010 5 393 26 768 60 1112
102 134 17 245 30 248 30 3 0 5 -328 5 -730 0 -401 -3 -730 -7 -730 -5 0 -95
-11 -201 -25 -238 -30 -632 -70 -892 -89 -467 -36 -634 -41 -1310 -41 -676 0
-843 5 -1310 41 -260 19 -654 59 -892 89 -106 14 -196 25 -200 25 -5 0 -8 329
-8 730 0 402 3 730 8 730 4 0 77 -9 162 -20 207 -27 224 -26 249 6 32 40 24
91 -17 113 -10 5 -108 21 -218 35 -109 15 -215 28 -234 31 -19 3 -44 0 -55 -7z
m487 -1824 c4 -3 8 -482 8 -1065 l0 -1059 -75 0 -75 0 0 1071 0 1072 67 -7
c36 -4 70 -9 75 -12z"/>
<path d="M4015 4049 c-82 -10 -195 -23 -249 -30 -81 -9 -104 -16 -123 -35 -29
-29 -30 -73 -1 -104 20 -22 26 -23 120 -16 l98 6 0 -297 c1 -318 1 -323 51
-342 30 -11 83 8 93 34 3 9 6 153 6 320 l0 303 33 5 c17 4 60 9 95 13 81 9
112 32 112 83 0 76 -34 84 -235 60z"/>
<path d="M1031 4040 c-131 -31 -199 -185 -141 -317 39 -90 106 -141 212 -162
68 -15 108 -53 108 -105 0 -56 -26 -70 -117 -63 -43 4 -98 9 -123 13 -59 8
-100 -21 -100 -71 0 -59 23 -74 135 -90 184 -26 240 -14 307 65 88 103 63 265
-54 353 -32 24 -58 34 -144 56 -77 20 -120 105 -75 150 24 24 42 25 164 10
107 -13 132 -8 152 31 20 39 19 54 -7 85 -20 21 -36 27 -108 35 -148 17 -174
18 -209 10z"/>
<path d="M1538 3985 c-51 -28 -50 -103 2 -130 16 -8 44 -15 62 -15 18 0 57 -3
86 -6 l52 -7 0 -304 0 -304 25 -24 c25 -26 63 -32 95 -15 35 19 40 64 40 358
l0 285 80 -6 c97 -8 134 3 151 45 10 26 10 35 -2 57 -8 14 -26 31 -39 37 -14
7 -113 17 -220 23 -107 6 -220 13 -250 16 -38 3 -63 0 -82 -10z"/>
<path d="M2984 3960 c-53 -21 -54 -28 -54 -397 0 -234 4 -350 11 -367 14 -30
61 -49 92 -37 45 17 52 37 56 168 4 140 5 141 86 104 68 -31 114 -103 115
-181 1 -68 80 -99 133 -52 41 36 9 188 -57 275 l-28 37 25 20 c14 11 38 45 52
74 48 99 31 228 -41 300 -55 55 -95 66 -239 65 -71 0 -140 -4 -151 -9z m259
-151 c48 -22 61 -91 27 -146 -21 -35 -67 -53 -137 -53 l-43 0 0 99 c0 112 -3
108 82 110 26 0 58 -4 71 -10z"/>
<path d="M2455 3954 c-90 -22 -150 -66 -188 -138 -21 -39 -22 -55 -25 -328
l-3 -288 25 -25 c26 -26 64 -32 96 -15 29 15 40 65 40 181 l0 109 95 0 95 0 0
-124 c0 -110 2 -126 21 -150 36 -46 108 -32 128 25 15 43 15 481 0 551 -12 54
-42 110 -75 140 -51 44 -155 75 -209 62z m102 -178 c25 -21 28 -31 31 -100 l4
-76 -65 0 c-35 0 -79 3 -96 6 l-31 7 0 67 c0 64 2 70 31 94 40 34 88 34 126 2z"/>
</g>
</svg>
