<?xml version="1.0" standalone="no"?>
<!DOCTYPE svg PUBLIC "-//W3C//DTD SVG 20010904//EN"
 "http://www.w3.org/TR/2001/REC-SVG-20010904/DTD/svg10.dtd">
<svg version="1.0" xmlns="http://www.w3.org/2000/svg"
 width="512.000000pt" height="512.000000pt" viewBox="0 0 512.000000 512.000000"
 preserveAspectRatio="xMidYMid meet">

<g transform="translate(0.000000,512.000000) scale(0.100000,-0.100000)"
fill="red" stroke="none">
<path d="M2305 5106 c-41 -19 -1341 -1324 -1355 -1359 -15 -42 -12 -83 9 -125
21 -40 450 -472 489 -492 30 -15 103 -15 134 0 12 7 51 40 86 73 l62 62 105
-105 105 -105 -924 -925 c-602 -603 -933 -942 -951 -973 -133 -232 -52 -518
179 -632 94 -47 182 -62 273 -48 152 23 93 -30 1126 1002 l937 936 107 -107
108 -108 -68 -68 c-78 -79 -94 -118 -76 -184 9 -37 45 -77 238 -272 267 -270
306 -294 394 -250 44 22 1324 1300 1348 1346 24 47 24 89 0 136 -29 56 -457
478 -505 497 -68 28 -109 14 -194 -68 l-73 -71 -531 531 -532 532 66 69 c38
39 70 81 73 98 4 16 8 34 10 41 2 6 -1 29 -7 50 -8 30 -56 84 -237 266 -124
126 -243 237 -263 248 -43 22 -91 24 -133 5z m173 -459 l102 -102 -533 -533
-532 -532 -105 105 -105 105 530 530 c291 292 532 530 535 530 3 0 51 -46 108
-103z m637 -1067 l530 -530 -318 -317 -317 -318 -532 532 -533 533 315 315
c173 173 317 315 320 315 3 0 244 -239 535 -530z m638 -1272 l-533 -533 -105
105 -105 105 532 532 533 533 105 -105 105 -105 -532 -532z m-1393 317 c0 -6
-411 -420 -912 -922 -1000 -999 -944 -948 -1037 -923 -48 13 -97 66 -106 114
-16 81 -42 52 933 1028 l917 918 102 -102 c57 -57 103 -107 103 -113z"/>
<path d="M2479 877 c-69 -46 -70 -51 -67 -437 3 -339 3 -346 25 -376 49 -68
-41 -64 1328 -64 1369 0 1279 -4 1328 64 22 30 22 37 25 376 3 386 2 391 -67
437 l-34 23 -1252 0 -1252 0 -34 -23z m2341 -427 l0 -150 -1055 0 -1055 0 0
150 0 150 1055 0 1055 0 0 -150z"/>
</g>
</svg>
